<?xml version="1.0" encoding="utf-8"?>
<!-- Generator: Adobe Illustrator 27.9.0, SVG Export Plug-In . SVG Version: 6.00 Build 0)  -->
<svg version="1.1" id="Camada_1" xmlns="http://www.w3.org/2000/svg" xmlns:xlink="http://www.w3.org/1999/xlink" x="0px" y="0px"
	 viewBox="0 0 1080 390.13" style="enable-background:new 0 0 1080 390.13;" xml:space="preserve">
<style type="text/css">
	.st0{fill:#FFFFFF;}
	.st1{fill:#FEC704;}
	.st2{fill-rule:evenodd;clip-rule:evenodd;fill:#FFFFFF;}
	.st3{fill:#4074B9;}
	.st4{fill:#242029;}
	.st5{fill:#A6A6A6;}
	.st6{fill:#020203;}
</style>
<g>
	<g>
		<g>
			<path class="st6" d="M964.54,26.27H115.51c-3.09,0-6.15,0-9.24,0.02c-2.58,0.02-5.15,0.07-7.76,0.11
				c-5.67,0.07-11.32,0.57-16.91,1.49c-5.58,0.95-10.99,2.73-16.04,5.29c-5.04,2.58-9.65,5.94-13.66,9.95
				c-4.03,4-7.39,8.62-9.94,13.68c-2.57,5.05-4.34,10.47-5.27,16.06c-0.94,5.58-1.45,11.23-1.51,16.9
				c-0.08,2.59-0.09,5.18-0.13,7.77v195.08c0.04,2.62,0.05,5.16,0.13,7.78c0.07,5.66,0.57,11.31,1.51,16.9
				c0.93,5.59,2.71,11.01,5.27,16.07c2.56,5.05,5.92,9.65,9.94,13.62c3.99,4.03,8.6,7.38,13.66,9.95
				c5.05,2.57,10.46,4.36,16.04,5.32c5.59,0.92,11.25,1.42,16.91,1.49c2.61,0.06,5.17,0.09,7.76,0.09c3.09,0.02,6.14,0.02,9.24,0.02
				h849.03c3.03,0,6.12,0,9.15-0.02c2.57,0,5.21-0.03,7.78-0.09c5.66-0.07,11.3-0.57,16.88-1.49c5.6-0.97,11.03-2.76,16.1-5.32
				c5.05-2.56,9.66-5.92,13.65-9.95c4.02-3.99,7.38-8.59,9.97-13.62c2.55-5.06,4.31-10.48,5.22-16.07
				c0.94-5.59,1.46-11.23,1.57-16.9c0.03-2.62,0.03-5.16,0.03-7.78c0.07-3.07,0.07-6.12,0.07-9.23V106.75c0-3.09,0-6.16-0.07-9.21
				c0-2.59,0-5.18-0.03-7.77c-0.1-5.66-0.63-11.31-1.57-16.9c-0.92-5.59-2.68-11-5.22-16.06c-5.21-10.15-13.47-18.42-23.62-23.63
				c-5.08-2.56-10.5-4.34-16.1-5.29c-5.58-0.93-11.22-1.43-16.88-1.49c-2.57-0.04-5.21-0.09-7.78-0.11
				C970.65,26.27,967.57,26.27,964.54,26.27L964.54,26.27z"/>
			<path class="st0" d="M106.31,356.47c-2.57,0-5.08-0.03-7.63-0.09c-5.29-0.07-10.56-0.53-15.77-1.38
				c-4.86-0.84-9.58-2.4-13.98-4.62c-4.36-2.21-8.35-5.11-11.79-8.58c-3.49-3.43-6.4-7.41-8.61-11.79
				c-2.23-4.4-3.78-9.12-4.58-13.99c-0.87-5.23-1.34-10.52-1.41-15.82c-0.05-1.78-0.12-7.71-0.12-7.71V97.54
				c0,0,0.07-5.84,0.12-7.55c0.06-5.29,0.53-10.58,1.4-15.8c0.81-4.88,2.35-9.61,4.59-14.03c2.2-4.37,5.09-8.35,8.57-11.8
				c3.47-3.48,7.46-6.39,11.84-8.63c4.39-2.22,9.1-3.77,13.95-4.59c5.23-0.86,10.53-1.32,15.83-1.38l7.62-0.1h867.33l7.71,0.11
				c5.26,0.06,10.5,0.52,15.68,1.37c4.9,0.83,9.66,2.39,14.1,4.62c8.76,4.51,15.89,11.66,20.38,20.42c2.2,4.38,3.72,9.08,4.52,13.92
				c0.88,5.27,1.37,10.59,1.47,15.93c0.02,2.39,0.02,4.96,0.02,7.51c0.07,3.16,0.07,6.18,0.07,9.21v176.63c0,3.07,0,6.06-0.07,9.07
				c0,2.74,0,5.26-0.03,7.85c-0.1,5.24-0.58,10.47-1.44,15.64c-0.79,4.9-2.32,9.66-4.56,14.09c-2.22,4.32-5.12,8.27-8.57,11.69
				c-3.45,3.49-7.44,6.41-11.81,8.63c-4.43,2.24-9.18,3.81-14.08,4.64c-5.22,0.85-10.49,1.31-15.78,1.38
				c-2.47,0.06-5.06,0.09-7.57,0.09l-9.15,0.02L106.31,356.47z"/>
		</g>
		<g id="_Group__00000072973280801052506920000003811331163090928530_">
			<g id="_Group_2_00000137828847162061399760000003251273127178477759_">
				<g id="_Group_3_00000003808483956090562420000009163464977287037345_">
					<path id="_Path__00000119085569181400792780000002053038283459260091_" class="st6" d="M246,194.13
						c0.19-14.89,8-28.64,20.68-36.44c-8.04-11.48-21.02-18.5-35.03-18.94c-14.74-1.55-29.02,8.82-36.54,8.82
						c-7.66,0-19.22-8.67-31.67-8.41c-16.38,0.53-31.29,9.62-39.26,23.94c-16.97,29.39-4.31,72.58,11.95,96.33
						c8.13,11.63,17.64,24.62,30.08,24.16c12.17-0.5,16.72-7.76,31.41-7.76c14.56,0,18.82,7.76,31.52,7.47
						c13.06-0.21,21.29-11.68,29.14-23.43c5.84-8.29,10.34-17.45,13.33-27.14C256.11,226.18,246.02,210.98,246,194.13z"/>
					<path id="_Path_2_00000030471026352195187860000009393954535194106267_" class="st6" d="M222.03,123.13
						c7.12-8.55,10.63-19.54,9.78-30.63c-10.88,1.14-20.93,6.34-28.15,14.57c-7.13,8.11-10.74,18.72-10.04,29.5
						C204.65,136.68,215.12,131.73,222.03,123.13z"/>
				</g>
			</g>
			<g>
				<path class="st6" d="M392.05,255.32H352.1l-9.59,28.33h-16.92l37.84-104.8h17.58l37.84,104.8h-17.21L392.05,255.32z
					 M356.24,242.25h31.67l-15.61-45.97h-0.44L356.24,242.25z"/>
				<path class="st6" d="M500.56,245.45c0,23.74-12.71,39-31.89,39c-9.91,0.52-19.25-4.67-24.04-13.37h-0.36v37.85h-15.68V207.24
					h15.18v12.71h0.29c5-8.64,14.35-13.83,24.33-13.51C487.78,206.44,500.56,221.77,500.56,245.45z M484.44,245.45
					c0-15.47-7.99-25.64-20.19-25.64c-11.98,0-20.04,10.38-20.04,25.64c0,15.4,8.06,25.71,20.04,25.71
					C476.45,271.15,484.44,261.06,484.44,245.45L484.44,245.45z"/>
				<path class="st6" d="M584.67,245.45c0,23.74-12.71,39-31.89,39c-9.91,0.52-19.25-4.67-24.04-13.37h-0.36v37.85h-15.68V207.24
					h15.18v12.71h0.29c5-8.64,14.35-13.83,24.33-13.51C571.88,206.44,584.67,221.77,584.67,245.45z M568.54,245.45
					c0-15.47-7.99-25.64-20.19-25.64c-11.98,0-20.04,10.38-20.04,25.64c0,15.4,8.06,25.71,20.04,25.71
					C560.55,271.15,568.54,261.06,568.54,245.45z"/>
				<path class="st6" d="M640.24,254.45c1.16,10.39,11.26,17.22,25.06,17.22c13.22,0,22.73-6.82,22.73-16.2
					c0-8.13-5.74-13.01-19.32-16.34l-13.58-3.27c-19.24-4.65-28.18-13.65-28.18-28.25c0-18.08,15.76-30.5,38.13-30.5
					c22.15,0,37.34,12.42,37.85,30.5h-15.83c-0.95-10.46-9.59-16.77-22.23-16.77s-21.28,6.39-21.28,15.68
					c0,7.41,5.52,11.77,19.03,15.11l11.55,2.84c21.5,5.09,30.43,13.72,30.43,29.05c0,19.61-15.61,31.89-40.45,31.89
					c-23.24,0-38.93-11.99-39.95-30.95L640.24,254.45z"/>
				<path class="st6" d="M738.45,189.15v18.08h14.53v12.42h-14.53v42.12c0,6.54,2.91,9.59,9.3,9.59c1.72-0.03,3.45-0.15,5.16-0.36
					v12.35c-2.87,0.54-5.79,0.78-8.71,0.73c-15.47,0-21.5-5.81-21.5-20.63v-43.8h-11.11v-12.42h11.11v-18.08H738.45z"/>
				<path class="st6" d="M761.39,245.45c0-24.04,14.16-39.15,36.24-39.15c22.15,0,36.25,15.11,36.25,39.15
					c0,24.11-14.02,39.15-36.25,39.15C775.41,284.6,761.39,269.55,761.39,245.45z M817.89,245.45c0-16.49-7.56-26.23-20.27-26.23
					c-12.71,0-20.27,9.81-20.27,26.23c0,16.56,7.56,26.22,20.27,26.22C810.34,271.66,817.89,262,817.89,245.45L817.89,245.45z"/>
				<path class="st6" d="M846.81,207.24h14.96v13.01h0.36c2.09-8.37,9.76-14.13,18.38-13.81c1.81-0.01,3.61,0.19,5.37,0.59v14.67
					c-2.28-0.7-4.66-1.02-7.05-0.95c-8.72-0.35-16.08,6.43-16.43,15.15c-0.03,0.81,0,1.62,0.09,2.43v45.32h-15.68L846.81,207.24z"/>
				<path class="st6" d="M958.19,261.2c-2.11,13.87-15.62,23.39-32.9,23.39c-22.23,0-36.02-14.89-36.02-38.79
					c0-23.97,13.87-39.51,35.37-39.51c21.14,0,34.43,14.52,34.43,37.69v5.37H905.1v0.95c-0.97,10.95,7.12,20.61,18.07,21.58
					c0.83,0.07,1.66,0.09,2.49,0.06c7.61,0.71,14.79-3.66,17.65-10.75L958.19,261.2z M905.17,238.4h38.2
					c0.56-10.13-7.19-18.8-17.33-19.37c-0.47-0.03-0.94-0.03-1.42-0.02c-10.68-0.06-19.39,8.54-19.46,19.23
					C905.17,238.29,905.17,238.34,905.17,238.4z"/>
			</g>
		</g>
	</g>
	<g id="_Group_4_00000136371299971534312890000000222170360534037385_">
		<g>
			<path class="st6" d="M354.28,99.96c12.27-0.88,22.93,8.35,23.81,20.63c0.11,1.47,0.07,2.94-0.12,4.4
				c0,16.09-8.7,25.34-23.7,25.34h-18.19V99.96H354.28z M343.91,143.19h9.49c8.73,0.52,16.23-6.13,16.75-14.86
				c0.06-1.09,0.02-2.18-0.14-3.25c1.19-8.69-4.88-16.69-13.57-17.89c-1.01-0.14-2.02-0.18-3.04-0.12h-9.49V143.19z"/>
			<path class="st6" d="M386.81,131.3c-0.95-9.9,6.31-18.69,16.21-19.64c9.9-0.95,18.69,6.31,19.64,16.21
				c0.11,1.14,0.11,2.29,0,3.43c0.96,9.9-6.28,18.7-16.18,19.67c-9.9,0.96-18.7-6.28-19.67-16.18
				C386.7,133.63,386.7,132.46,386.81,131.3z M414.94,131.3c0-8.24-3.7-13.05-10.2-13.05c-6.52,0-10.19,4.82-10.19,13.06
				c0,8.3,3.67,13.08,10.19,13.08C411.24,144.38,414.94,139.57,414.94,131.3L414.94,131.3z"/>
			<path class="st6" d="M470.3,150.32h-7.78l-7.85-27.99h-0.59l-7.82,27.99h-7.71l-10.48-38h7.61l6.81,29h0.56l7.81-29h7.2l7.81,29
				h0.59l6.77-29h7.5L470.3,150.32z"/>
			<path class="st6" d="M489.54,112.31h7.22v6.04h0.56c1.95-4.44,6.5-7.16,11.34-6.77c6.81-0.51,12.74,4.59,13.25,11.4
				c0.07,0.91,0.04,1.83-0.1,2.74v24.6h-7.5V127.6c0-6.11-2.65-9.14-8.2-9.14c-4.81-0.22-8.89,3.49-9.11,8.3
				c-0.02,0.44-0.01,0.89,0.04,1.33v22.23h-7.5L489.54,112.31z"/>
			<path class="st6" d="M533.77,97.48h7.5v52.84h-7.5V97.48z"/>
			<path class="st6" d="M551.7,131.3c-0.95-9.9,6.31-18.69,16.21-19.64c9.9-0.95,18.69,6.31,19.64,16.21c0.11,1.14,0.11,2.29,0,3.43
				c0.96,9.9-6.28,18.7-16.18,19.67s-18.7-6.28-19.67-16.18C551.58,133.62,551.58,132.46,551.7,131.3z M579.82,131.3
				c0-8.24-3.7-13.05-10.2-13.05c-6.52,0-10.19,4.82-10.19,13.06c0,8.3,3.67,13.08,10.19,13.08
				C576.12,144.38,579.82,139.57,579.82,131.3z"/>
			<path class="st6" d="M595.44,139.57c0-6.84,5.09-10.78,14.13-11.34l10.29-0.59v-3.28c0-4.01-2.65-6.28-7.78-6.28
				c-4.19,0-7.09,1.54-7.92,4.22h-7.26c0.77-6.53,6.91-10.71,15.53-10.71c9.53,0,14.9,4.74,14.9,12.77v25.97h-7.22v-5.34h-0.59
				c-2.45,3.9-6.81,6.18-11.41,5.97c-6.31,0.66-11.95-3.92-12.61-10.23C595.46,140.33,595.44,139.95,595.44,139.57z M619.87,136.32
				v-3.18l-9.28,0.59c-5.23,0.35-7.61,2.13-7.61,5.48c0,3.42,2.97,5.41,7.05,5.41c4.92,0.5,9.32-3.09,9.82-8.01
				C619.85,136.52,619.86,136.42,619.87,136.32z"/>
			<path class="st6" d="M637.19,131.3c0-12.01,6.17-19.62,15.77-19.62c4.85-0.22,9.39,2.37,11.65,6.67h0.56V97.48h7.5v52.84h-7.19
				v-6h-0.59c-2.44,4.26-7.03,6.81-11.93,6.63C643.3,150.94,637.19,143.33,637.19,131.3z M644.94,131.3
				c0,8.06,3.8,12.91,10.15,12.91c6.32,0,10.23-4.92,10.23-12.88c0-7.92-3.95-12.91-10.23-12.91
				C648.78,118.42,644.94,123.3,644.94,131.3L644.94,131.3z"/>
			<path class="st6" d="M703.71,131.3c-0.95-9.9,6.31-18.69,16.21-19.64s18.69,6.31,19.64,16.21c0.11,1.14,0.11,2.29,0,3.43
				c0.96,9.9-6.28,18.7-16.18,19.67c-9.9,0.96-18.7-6.28-19.67-16.18C703.6,133.63,703.6,132.46,703.71,131.3z M731.84,131.3
				c0-8.24-3.7-13.05-10.2-13.05c-6.52,0-10.19,4.82-10.19,13.06c0,8.3,3.67,13.08,10.19,13.08
				C728.14,144.38,731.84,139.57,731.84,131.3z"/>
			<path class="st6" d="M749.62,112.31h7.22v6.04h0.56c1.95-4.44,6.5-7.16,11.34-6.77c6.81-0.51,12.74,4.59,13.25,11.4
				c0.07,0.91,0.04,1.83-0.1,2.74v24.6h-7.5V127.6c0-6.11-2.65-9.14-8.2-9.14c-4.81-0.22-8.89,3.49-9.11,8.3
				c-0.02,0.44-0.01,0.89,0.04,1.33v22.23h-7.5V112.31z"/>
			<path class="st6" d="M824.27,102.85v9.63h8.23v6.32h-8.23v19.54c0,3.98,1.64,5.72,5.37,5.72c0.96,0,1.91-0.06,2.86-0.17v6.25
				c-1.35,0.24-2.71,0.37-4.08,0.38c-8.34,0-11.66-2.93-11.66-10.26V118.8h-6.03v-6.32h6.03v-9.63H824.27z"/>
			<path class="st6" d="M842.75,97.48h7.43v20.94h0.59c2.04-4.48,6.68-7.21,11.59-6.81c6.9-0.38,12.81,4.92,13.18,11.82
				c0.04,0.78,0.01,1.57-0.09,2.35v24.54h-7.51v-22.69c0-6.07-2.83-9.14-8.13-9.14c-4.89-0.4-9.17,3.24-9.57,8.12
				c-0.04,0.5-0.04,1.01,0.01,1.51v22.2h-7.5L842.75,97.48z"/>
			<path class="st6" d="M919.19,140.05c-2.1,7.17-9.04,11.8-16.47,10.99c-9.53,0.25-17.46-7.27-17.71-16.8
				c-0.02-0.94,0.03-1.88,0.16-2.82c-1.29-9.59,5.45-18.41,15.05-19.7c0.82-0.11,1.65-0.16,2.48-0.15
				c10.57,0,16.95,7.22,16.95,19.16v2.62H892.8v0.42c-0.47,5.53,3.64,10.39,9.17,10.85c0.32,0.03,0.64,0.04,0.95,0.03
				c3.67,0.44,7.24-1.38,9.04-4.61L919.19,140.05z M892.8,127.81H912c0.37-5.05-3.42-9.45-8.47-9.82c-0.3-0.02-0.59-0.03-0.89-0.02
				c-5.37-0.07-9.77,4.23-9.84,9.6C892.8,127.64,892.8,127.72,892.8,127.81L892.8,127.81z"/>
		</g>
	</g>
</g>
</svg>
