<?xml version="1.0" encoding="UTF-8"?>
<svg id="Layer_1" data-name="Layer 1" xmlns="http://www.w3.org/2000/svg" viewBox="0 0 119.66 40">
  <defs>
    <style>
      .cls-1 {
        fill: #fff;
      }
    </style>
  </defs>
  <path d="m110.14,0H9.53C9.17,0,8.81,0,8.44,0c-.31,0-.61,0-.92.01-.67,0-1.34.07-2,.18-.66.11-1.3.32-1.9.63-.6.31-1.14.7-1.62,1.18-.48.47-.88,1.02-1.18,1.62-.3.6-.51,1.24-.62,1.9C.08,6.18.02,6.85.02,7.52c0,.31-.01.61-.02.92v23.11c0,.31,0,.61.02.92,0,.67.07,1.34.18,2,.11.66.32,1.31.62,1.9.3.6.7,1.14,1.18,1.61.47.48,1.02.88,1.62,1.18.6.3,1.24.52,1.9.63.66.11,1.33.17,2,.18.31,0,.61.01.92.01.37,0,.73,0,1.09,0h100.6c.36,0,.72,0,1.08,0,.3,0,.62,0,.92-.01.67,0,1.34-.07,2-.18.66-.11,1.31-.33,1.91-.63.6-.3,1.14-.7,1.62-1.18.48-.47.88-1.02,1.18-1.61.3-.6.51-1.24.62-1.9.11-.66.17-1.33.18-2,0-.31,0-.61,0-.92,0-.36,0-.72,0-1.09V9.54c0-.37,0-.73,0-1.09,0-.31,0-.61,0-.92-.01-.67-.07-1.34-.18-2-.11-.66-.32-1.3-.62-1.9-.62-1.2-1.6-2.18-2.8-2.8-.6-.3-1.25-.51-1.91-.63-.66-.11-1.33-.17-2-.18-.31,0-.62-.01-.92-.01C110.86,0,110.49,0,110.14,0Z"/>
  <path class="cls-1" d="m8.44,39.12c-.3,0-.6,0-.9-.01-.63,0-1.25-.06-1.87-.16-.58-.1-1.13-.28-1.66-.55-.52-.26-.99-.6-1.4-1.02-.41-.41-.76-.88-1.02-1.4-.26-.52-.45-1.08-.54-1.66-.1-.62-.16-1.25-.17-1.88,0-.21-.01-.91-.01-.91V8.44s0-.69.01-.89c0-.63.06-1.25.17-1.87.1-.58.28-1.14.54-1.66.26-.52.6-.99,1.02-1.4.41-.41.88-.76,1.4-1.02.52-.26,1.08-.45,1.65-.54.62-.1,1.25-.16,1.88-.16h.9s102.77-.01,102.77-.01h.91c.62.02,1.24.07,1.86.18.58.1,1.14.28,1.67.55,1.04.53,1.88,1.38,2.42,2.42.26.52.44,1.08.54,1.65.1.62.16,1.25.17,1.89,0,.28,0,.59,0,.89,0,.38,0,.73,0,1.09v20.93c0,.36,0,.72,0,1.08,0,.33,0,.62,0,.93-.01.62-.07,1.24-.17,1.85-.09.58-.28,1.14-.54,1.67-.26.51-.61.98-1.01,1.39-.41.41-.88.76-1.4,1.02-.53.27-1.09.45-1.67.55-.62.1-1.24.16-1.87.16-.29,0-.6.01-.9.01h-1.08s-101.69,0-101.69,0Z"/>
  <path d="m25,19.89c.01-.87.24-1.72.67-2.47.43-.75,1.04-1.39,1.78-1.84-.47-.67-1.09-1.22-1.81-1.61-.72-.39-1.52-.61-2.34-.63-1.75-.18-3.44,1.04-4.33,1.04s-2.28-1.03-3.75-1c-.95.03-1.88.31-2.7.81-.82.5-1.49,1.2-1.95,2.03-2.01,3.48-.51,8.6,1.42,11.41.96,1.38,2.09,2.92,3.56,2.86,1.44-.06,1.98-.92,3.72-.92s2.23.92,3.73.89c1.55-.03,2.52-1.38,3.45-2.78.69-.98,1.23-2.07,1.58-3.22-.9-.38-1.67-1.02-2.21-1.83s-.83-1.77-.83-2.74Z"/>
  <path d="m22.16,11.48c.84-1.01,1.26-2.32,1.16-3.63-1.29.14-2.48.75-3.34,1.73-.42.48-.74,1.03-.94,1.63-.2.6-.29,1.23-.25,1.87.64,0,1.28-.13,1.87-.41.58-.28,1.1-.68,1.5-1.18Z"/>
  <path d="m42.3,27.14h-4.73l-1.14,3.36h-2l4.48-12.42h2.08l4.48,12.42h-2.04l-1.14-3.36Zm-4.24-1.55h3.75l-1.85-5.45h-.05l-1.85,5.45Z"/>
  <path d="m55.16,25.97c0,2.81-1.51,4.62-3.78,4.62-.58.03-1.15-.1-1.65-.38-.5-.28-.92-.7-1.2-1.2h-.04v4.48h-1.86v-12.05h1.8v1.51h.03c.29-.5.71-.92,1.22-1.2.51-.28,1.08-.42,1.66-.4,2.3,0,3.81,1.82,3.81,4.62Zm-1.91,0c0-1.83-.95-3.04-2.39-3.04s-2.38,1.23-2.38,3.04.96,3.05,2.38,3.05,2.39-1.2,2.39-3.05Z"/>
  <path d="m65.12,25.97c0,2.81-1.51,4.62-3.78,4.62-.58.03-1.15-.1-1.65-.38-.5-.28-.92-.7-1.2-1.2h-.04v4.48h-1.86v-12.05h1.8v1.51h.03c.29-.5.71-.92,1.22-1.2.51-.28,1.08-.42,1.66-.4,2.3,0,3.81,1.82,3.81,4.62Zm-1.91,0c0-1.83-.95-3.04-2.39-3.04s-2.38,1.23-2.38,3.04.96,3.05,2.38,3.05,2.39-1.2,2.39-3.05Z"/>
  <path d="m71.71,27.04c.14,1.23,1.33,2.04,2.97,2.04s2.69-.81,2.69-1.92c0-.96-.68-1.54-2.29-1.94l-1.61-.39c-2.28-.55-3.34-1.62-3.34-3.35,0-2.14,1.87-3.61,4.52-3.61s4.42,1.47,4.48,3.61h-1.88c-.11-1.24-1.14-1.99-2.63-1.99s-2.52.76-2.52,1.86c0,.88.65,1.39,2.25,1.79l1.37.34c2.55.6,3.61,1.63,3.61,3.44,0,2.32-1.85,3.78-4.79,3.78-2.75,0-4.61-1.42-4.73-3.67h1.9Z"/>
  <path d="m83.35,19.3v2.14h1.72v1.47h-1.72v4.99c0,.78.34,1.14,1.1,1.14.2,0,.41-.02.61-.04v1.46c-.34.06-.69.09-1.03.09-1.83,0-2.55-.69-2.55-2.44v-5.19h-1.32v-1.47h1.32v-2.14h1.87Z"/>
  <path d="m86.06,25.97c0-2.85,1.68-4.64,4.29-4.64s4.29,1.79,4.29,4.64-1.66,4.64-4.29,4.64-4.29-1.78-4.29-4.64Zm6.7,0c0-1.95-.9-3.11-2.4-3.11s-2.4,1.16-2.4,3.11.9,3.11,2.4,3.11,2.4-1.14,2.4-3.11Z"/>
  <path d="m96.19,21.44h1.77v1.54h.04c.12-.48.4-.91.8-1.2.4-.3.88-.45,1.38-.43.21,0,.43.02.64.07v1.74c-.27-.08-.55-.12-.83-.11-.27-.01-.54.04-.79.14-.25.1-.47.26-.66.46s-.32.43-.41.69c-.08.26-.11.53-.08.8v5.37h-1.86v-9.05Z"/>
  <path d="m109.38,27.84c-.25,1.64-1.85,2.77-3.9,2.77-2.63,0-4.27-1.76-4.27-4.6s1.64-4.68,4.19-4.68,4.08,1.72,4.08,4.47v.64h-6.39v.11c-.03.33.01.67.12.98.11.32.29.6.52.85.23.24.51.43.82.56.31.13.64.19.98.17.44.04.88-.06,1.26-.29.38-.23.67-.57.84-.98h1.76Zm-6.28-2.7h4.53c.02-.3-.03-.6-.13-.88-.11-.28-.27-.54-.48-.75-.21-.22-.46-.39-.74-.5-.28-.11-.57-.17-.88-.16-.3,0-.6.06-.88.17-.28.11-.54.28-.75.5-.21.21-.38.47-.5.75-.12.28-.18.58-.17.88Z"/>
  <path d="m37.83,8.73c.39-.03.78.03,1.14.17.36.14.69.36.96.65.27.28.47.62.59.99.12.37.16.76.11,1.15,0,1.91-1.03,3-2.81,3h-2.16v-5.97h2.16Zm-1.23,5.12h1.12c.28.02.56-.03.82-.13.26-.1.49-.27.68-.47.19-.21.33-.45.41-.72.08-.27.1-.55.06-.82.04-.27.01-.55-.07-.82-.08-.26-.22-.51-.41-.71-.19-.2-.42-.36-.68-.47-.26-.1-.53-.15-.81-.13h-1.12v4.28Z"/>
  <path d="m41.68,12.44c-.03-.3,0-.59.1-.88.09-.28.25-.54.45-.76.2-.22.44-.4.72-.52.27-.12.57-.18.86-.18s.59.06.86.18c.27.12.52.3.72.52.2.22.35.48.45.76.09.28.13.58.1.88.03.3,0,.6-.1.88-.09.28-.25.54-.45.76s-.44.4-.72.52c-.27.12-.57.18-.86.18s-.59-.06-.86-.18c-.27-.12-.52-.3-.72-.52-.2-.22-.35-.48-.45-.76-.09-.28-.13-.58-.1-.88Zm3.33,0c0-.98-.44-1.55-1.21-1.55s-1.21.57-1.21,1.55.43,1.55,1.21,1.55,1.21-.57,1.21-1.55Z"/>
  <path d="m51.57,14.7h-.92l-.93-3.32h-.07l-.93,3.32h-.91l-1.24-4.5h.9l.81,3.44h.07l.93-3.44h.85l.93,3.44h.07l.8-3.44h.89l-1.24,4.5Z"/>
  <path d="m53.85,10.19h.86v.72h.07c.11-.26.3-.47.54-.62.24-.14.52-.21.8-.19.22-.02.44.02.64.1.2.08.39.21.54.37s.26.35.33.56c.07.21.08.43.05.65v2.91h-.89v-2.69c0-.72-.31-1.08-.97-1.08-.15,0-.3.02-.44.07-.14.06-.26.14-.36.25-.1.11-.18.24-.23.38-.05.14-.06.29-.05.44v2.63h-.89v-4.5Z"/>
  <path d="m59.09,8.44h.89v6.26h-.89v-6.26Z"/>
  <path d="m61.22,12.44c-.03-.3,0-.59.1-.88.09-.28.25-.54.45-.76.2-.22.44-.4.72-.52.27-.12.57-.18.86-.18s.59.06.86.18c.27.12.52.3.72.52.2.22.35.48.45.76.09.28.13.58.1.88.03.3,0,.6-.1.88-.09.28-.25.54-.45.76s-.44.4-.72.52c-.27.12-.57.18-.86.18s-.59-.06-.86-.18c-.27-.12-.52-.3-.72-.52-.2-.22-.35-.48-.45-.76-.09-.28-.13-.58-.1-.88Zm3.33,0c0-.98-.44-1.55-1.21-1.55s-1.21.57-1.21,1.55.43,1.55,1.21,1.55,1.21-.57,1.21-1.55Z"/>
  <path d="m66.4,13.42c0-.81.6-1.28,1.67-1.34l1.22-.07v-.39c0-.48-.31-.74-.92-.74-.5,0-.84.18-.94.5h-.86c.09-.77.82-1.27,1.84-1.27,1.13,0,1.77.56,1.77,1.51v3.08h-.86v-.63h-.07c-.14.23-.34.41-.58.54s-.5.18-.77.17c-.19.02-.38,0-.56-.06-.18-.06-.35-.15-.49-.28-.14-.13-.25-.28-.33-.46-.08-.17-.12-.36-.12-.55Zm2.89-.38v-.38l-1.1.07c-.62.04-.9.25-.9.65s.35.64.83.64c.14.01.28,0,.42-.04s.26-.11.37-.2c.11-.09.2-.2.26-.33.06-.13.1-.27.11-.41Z"/>
  <path d="m71.35,12.44c0-1.42.73-2.32,1.87-2.32.28-.01.56.05.81.19.24.14.44.35.58.6h.07v-2.47h.89v6.26h-.85v-.71h-.07c-.14.25-.35.45-.6.59-.25.14-.53.21-.82.2-1.15,0-1.87-.9-1.87-2.33Zm.92,0c0,.96.45,1.53,1.2,1.53s1.21-.58,1.21-1.53-.47-1.53-1.21-1.53-1.2.58-1.2,1.53Z"/>
  <path d="m79.23,12.44c-.03-.3,0-.59.1-.88.09-.28.25-.54.45-.76.2-.22.44-.4.72-.52.27-.12.57-.18.86-.18s.59.06.86.18c.27.12.52.3.72.52.2.22.35.48.45.76.09.28.13.58.1.88.03.3,0,.6-.1.88-.09.28-.25.54-.45.76-.2.22-.44.4-.72.52-.27.12-.57.18-.86.18s-.59-.06-.86-.18c-.27-.12-.52-.3-.72-.52-.2-.22-.35-.48-.45-.76-.09-.28-.13-.58-.1-.88Zm3.33,0c0-.98-.44-1.55-1.21-1.55s-1.21.57-1.21,1.55.43,1.55,1.21,1.55,1.21-.57,1.21-1.55Z"/>
  <path d="m84.67,10.19h.86v.72h.07c.11-.26.3-.47.54-.62.24-.14.52-.21.8-.19.22-.02.44.02.64.1.2.08.39.21.54.37.15.16.26.35.33.56.07.21.08.43.05.65v2.91h-.89v-2.69c0-.72-.31-1.08-.97-1.08-.15,0-.3.02-.44.07-.14.06-.26.14-.36.25-.1.11-.18.24-.23.38-.05.14-.06.29-.05.44v2.63h-.89v-4.5Z"/>
  <path d="m93.52,9.07v1.14h.98v.75h-.98v2.32c0,.47.19.68.64.68.11,0,.23,0,.34-.02v.74c-.16.03-.32.04-.48.05-.99,0-1.38-.35-1.38-1.22v-2.54h-.71v-.75h.71v-1.14h.89Z"/>
  <path d="m95.7,8.44h.88v2.48h.07c.12-.26.31-.48.56-.62.25-.14.53-.21.81-.19.22-.01.44.02.64.11.2.08.38.21.53.37.15.16.26.35.32.56.07.21.08.43.06.64v2.91h-.89v-2.69c0-.72-.33-1.08-.96-1.08-.15-.01-.31,0-.45.06-.14.05-.27.14-.38.25-.11.11-.19.24-.24.38-.05.14-.07.3-.06.45v2.63h-.89v-6.26Z"/>
  <path d="m104.76,13.48c-.12.41-.38.77-.74,1.01-.36.24-.79.34-1.21.3-.3,0-.59-.05-.86-.17-.27-.12-.52-.29-.71-.51-.2-.22-.35-.48-.43-.77-.09-.28-.11-.58-.07-.88-.04-.29-.02-.59.07-.88.09-.28.23-.55.43-.77.2-.22.44-.4.71-.52.27-.12.57-.18.86-.18,1.25,0,2.01.86,2.01,2.27v.31h-3.18v.05c-.01.17,0,.33.06.49.05.16.14.3.25.42.11.12.25.22.4.28s.32.1.48.1c.21.03.43-.01.62-.11.19-.1.35-.25.45-.44h.86Zm-3.13-1.45h2.28c.01-.15-.01-.3-.06-.45s-.13-.27-.24-.38c-.1-.11-.23-.2-.37-.25-.14-.06-.29-.09-.44-.08-.15,0-.31.03-.45.08-.14.06-.27.14-.38.25-.11.11-.19.24-.25.38s-.09.3-.08.45Z"/>
</svg>