<?xml version="1.0" encoding="UTF-8"?>
<svg id="Layer_1" data-name="Layer 1" xmlns="http://www.w3.org/2000/svg" viewBox="0 0 132.66 40">
  <defs>
    <style>
      .cls-1 {
        fill: #fff;
      }

      .cls-2 {
        fill-rule: evenodd;
      }
    </style>
  </defs>
  <path d="m123.14,0H9.53C9.17,0,8.81,0,8.44,0c-.31,0-.61,0-.92.01-.67,0-1.34.07-2,.18-.66.11-1.3.32-1.9.63-.6.31-1.14.7-1.62,1.18-.48.47-.88,1.02-1.18,1.62-.3.6-.51,1.24-.62,1.9C.08,6.18.02,6.85.02,7.52c0,.31-.01.61-.02.92v23.11c0,.31,0,.61.02.92,0,.67.07,1.34.18,2,.11.66.32,1.31.62,1.9.3.6.7,1.14,1.18,1.61.47.48,1.02.88,1.62,1.18.6.3,1.24.52,1.9.63.66.11,1.33.17,2,.18.31,0,.61.01.92.01.37,0,.73,0,1.09,0h113.6c.36,0,.72,0,1.08,0,.3,0,.62,0,.92-.01.67,0,1.34-.07,2-.18.66-.11,1.31-.33,1.91-.63.6-.3,1.14-.7,1.62-1.18.48-.47.88-1.02,1.18-1.61.3-.6.51-1.24.62-1.9.11-.66.17-1.33.18-2,0-.31,0-.61,0-.92,0-.36,0-.72,0-1.09V9.54c0-.37,0-.73,0-1.09,0-.31,0-.61,0-.92-.01-.67-.07-1.34-.18-2-.11-.66-.32-1.3-.62-1.9-.62-1.2-1.6-2.18-2.8-2.8-.6-.3-1.25-.51-1.91-.63-.66-.11-1.33-.17-2-.18-.31,0-.62-.01-.92-.01C123.86,0,123.49,0,123.14,0Z"/>
  <path class="cls-1" d="m8.44,39.12c-.3,0-.6,0-.9-.01-.63,0-1.25-.06-1.87-.16-.58-.1-1.13-.28-1.66-.55-.52-.26-.99-.6-1.4-1.02-.41-.41-.76-.88-1.02-1.4-.26-.52-.45-1.08-.54-1.66-.1-.62-.16-1.25-.17-1.88,0-.21-.01-.91-.01-.91V8.44s0-.69.01-.89c0-.63.06-1.25.17-1.87.1-.58.28-1.14.54-1.66.26-.52.6-.99,1.02-1.4.41-.41.88-.76,1.4-1.02.52-.26,1.08-.45,1.65-.54.62-.1,1.25-.16,1.88-.16h.9s115.77-.01,115.77-.01h.91c.62.02,1.24.07,1.86.18.58.1,1.14.28,1.67.55,1.04.53,1.88,1.38,2.42,2.42.26.52.44,1.08.54,1.65.1.62.16,1.25.17,1.89,0,.28,0,.59,0,.89,0,.38,0,.73,0,1.09v20.93c0,.36,0,.72,0,1.08,0,.33,0,.62,0,.93-.01.62-.07,1.24-.17,1.85-.09.58-.28,1.14-.54,1.67-.26.51-.61.98-1.01,1.39-.41.41-.88.76-1.4,1.02-.53.27-1.09.45-1.67.55-.62.1-1.24.16-1.87.16-.29,0-.6.01-.9.01h-1.08s-114.69,0-114.69,0Z"/>
  <path d="m37.83,8.73c.39-.03.78.03,1.14.17.36.14.69.36.96.65.27.28.47.62.59.99.12.37.16.76.11,1.15,0,1.91-1.03,3-2.81,3h-2.16v-5.97h2.16Zm-1.23,5.12h1.12c.28.02.56-.03.82-.13.26-.1.49-.27.68-.47.19-.21.33-.45.41-.72.08-.27.1-.55.06-.82.04-.27.01-.55-.07-.82-.08-.26-.22-.51-.41-.71-.19-.2-.42-.36-.68-.47-.26-.1-.53-.15-.81-.13h-1.12v4.28Z"/>
  <path d="m41.68,12.44c-.03-.3,0-.59.1-.88.09-.28.25-.54.45-.76.2-.22.44-.4.72-.52.27-.12.57-.18.86-.18s.59.06.86.18c.27.12.52.3.72.52.2.22.35.48.45.76.09.28.13.58.1.88.03.3,0,.6-.1.88-.09.28-.25.54-.45.76s-.44.4-.72.52c-.27.12-.57.18-.86.18s-.59-.06-.86-.18c-.27-.12-.52-.3-.72-.52-.2-.22-.35-.48-.45-.76-.09-.28-.13-.58-.1-.88Zm3.33,0c0-.98-.44-1.55-1.21-1.55s-1.21.57-1.21,1.55.43,1.55,1.21,1.55,1.21-.57,1.21-1.55Z"/>
  <path d="m51.57,14.7h-.92l-.93-3.32h-.07l-.93,3.32h-.91l-1.24-4.5h.9l.81,3.44h.07l.93-3.44h.85l.93,3.44h.07l.8-3.44h.89l-1.24,4.5Z"/>
  <path d="m53.85,10.19h.86v.72h.07c.11-.26.3-.47.54-.62.24-.14.52-.21.8-.19.22-.02.44.02.64.1.2.08.39.21.54.37s.26.35.33.56c.07.21.08.43.05.65v2.91h-.89v-2.69c0-.72-.31-1.08-.97-1.08-.15,0-.3.02-.44.07-.14.06-.26.14-.36.25-.1.11-.18.24-.23.38-.05.14-.06.29-.05.44v2.63h-.89v-4.5Z"/>
  <path d="m59.09,8.44h.89v6.26h-.89v-6.26Z"/>
  <path d="m61.22,12.44c-.03-.3,0-.59.1-.88.09-.28.25-.54.45-.76.2-.22.44-.4.72-.52.27-.12.57-.18.86-.18s.59.06.86.18c.27.12.52.3.72.52.2.22.35.48.45.76.09.28.13.58.1.88.03.3,0,.6-.1.88-.09.28-.25.54-.45.76s-.44.4-.72.52c-.27.12-.57.18-.86.18s-.59-.06-.86-.18c-.27-.12-.52-.3-.72-.52-.2-.22-.35-.48-.45-.76-.09-.28-.13-.58-.1-.88Zm3.33,0c0-.98-.44-1.55-1.21-1.55s-1.21.57-1.21,1.55.43,1.55,1.21,1.55,1.21-.57,1.21-1.55Z"/>
  <path d="m66.4,13.42c0-.81.6-1.28,1.67-1.34l1.22-.07v-.39c0-.48-.31-.74-.92-.74-.5,0-.84.18-.94.5h-.86c.09-.77.82-1.27,1.84-1.27,1.13,0,1.77.56,1.77,1.51v3.08h-.86v-.63h-.07c-.14.23-.34.41-.58.54s-.5.18-.77.17c-.19.02-.38,0-.56-.06-.18-.06-.35-.15-.49-.28-.14-.13-.25-.28-.33-.46-.08-.17-.12-.36-.12-.55Zm2.89-.38v-.38l-1.1.07c-.62.04-.9.25-.9.65s.35.64.83.64c.14.01.28,0,.42-.04s.26-.11.37-.2c.11-.09.2-.2.26-.33.06-.13.1-.27.11-.41Z"/>
  <path d="m71.35,12.44c0-1.42.73-2.32,1.87-2.32.28-.01.56.05.81.19.24.14.44.35.58.6h.07v-2.47h.89v6.26h-.85v-.71h-.07c-.14.25-.35.45-.6.59-.25.14-.53.21-.82.2-1.15,0-1.87-.9-1.87-2.33Zm.92,0c0,.96.45,1.53,1.2,1.53s1.21-.58,1.21-1.53-.47-1.53-1.21-1.53-1.2.58-1.2,1.53Z"/>
  <path d="m79.23,12.44c-.03-.3,0-.59.1-.88.09-.28.25-.54.45-.76.2-.22.44-.4.72-.52.27-.12.57-.18.86-.18s.59.06.86.18c.27.12.52.3.72.52.2.22.35.48.45.76.09.28.13.58.1.88.03.3,0,.6-.1.88-.09.28-.25.54-.45.76-.2.22-.44.4-.72.52-.27.12-.57.18-.86.18s-.59-.06-.86-.18c-.27-.12-.52-.3-.72-.52-.2-.22-.35-.48-.45-.76-.09-.28-.13-.58-.1-.88Zm3.33,0c0-.98-.44-1.55-1.21-1.55s-1.21.57-1.21,1.55.43,1.55,1.21,1.55,1.21-.57,1.21-1.55Z"/>
  <path d="m84.67,10.19h.86v.72h.07c.11-.26.3-.47.54-.62.24-.14.52-.21.8-.19.22-.02.44.02.64.1.2.08.39.21.54.37.15.16.26.35.33.56.07.21.08.43.05.65v2.91h-.89v-2.69c0-.72-.31-1.08-.97-1.08-.15,0-.3.02-.44.07-.14.06-.26.14-.36.25-.1.11-.18.24-.23.38-.05.14-.06.29-.05.44v2.63h-.89v-4.5Z"/>
  <g>
    <path d="m38.01,30.51c-.7-.29-1.3-.72-1.79-1.27-.49-.55-.87-1.22-1.14-2.01-.27-.78-.4-1.67-.4-2.65h0c0-1.29.23-2.4.69-3.33.46-.93,1.12-1.65,1.97-2.16.85-.51,1.86-.76,3.01-.76.95,0,1.78.17,2.49.5.71.34,1.29.79,1.74,1.38.45.58.76,1.24.93,1.98l.03.14h-1.96l-.03-.09c-.25-.71-.65-1.25-1.2-1.64-.54-.39-1.21-.58-2.01-.58s-1.44.18-2,.54c-.56.36-.99.88-1.29,1.56-.3.68-.45,1.5-.45,2.45h0c0,.74.09,1.39.26,1.97.17.58.43,1.07.76,1.48.33.41.73.72,1.19.93.46.21.98.32,1.57.32.66,0,1.24-.13,1.75-.39.5-.26.9-.62,1.18-1.09.28-.47.43-1.01.44-1.62v-.2h-3.2v-1.55h5.08v1.25c0,.82-.12,1.56-.36,2.22-.24.65-.58,1.21-1.04,1.67s-1.01.8-1.66,1.04c-.65.24-1.39.36-2.21.36-.87,0-1.66-.15-2.37-.44Z"/>
    <path d="m48.88,30.36c-.63-.38-1.13-.91-1.48-1.6-.35-.69-.52-1.51-.52-2.47v-.02c0-.95.18-1.77.53-2.45.35-.69.85-1.22,1.48-1.59.63-.37,1.37-.56,2.21-.56s1.59.18,2.22.55c.63.37,1.13.9,1.48,1.59.35.69.53,1.51.53,2.46v.02c0,.96-.18,1.78-.53,2.47-.35.69-.85,1.22-1.48,1.6-.63.38-1.37.56-2.22.56s-1.6-.19-2.23-.56Zm3.47-1.34c.35-.24.62-.59.81-1.05.19-.46.29-1.02.29-1.67v-.02c0-.65-.1-1.2-.29-1.66-.19-.46-.47-.81-.82-1.05-.36-.24-.77-.36-1.24-.36s-.88.12-1.23.36c-.35.24-.63.59-.83,1.05s-.3,1.01-.3,1.66v.02c0,.65.1,1.21.29,1.67.19.46.47.81.82,1.05.36.24.77.36,1.25.36s.89-.12,1.24-.36Z"/>
    <path d="m58.35,30.36c-.63-.38-1.13-.91-1.48-1.6-.35-.69-.52-1.51-.52-2.47v-.02c0-.95.18-1.77.53-2.45.35-.69.85-1.22,1.48-1.59.63-.37,1.37-.56,2.21-.56s1.59.18,2.22.55c.63.37,1.13.9,1.48,1.59.35.69.53,1.51.53,2.46v.02c0,.96-.18,1.78-.53,2.47-.35.69-.85,1.22-1.48,1.6-.63.38-1.37.56-2.22.56s-1.6-.19-2.23-.56Zm3.47-1.34c.35-.24.62-.59.81-1.05.19-.46.29-1.02.29-1.67v-.02c0-.65-.1-1.2-.29-1.66-.19-.46-.47-.81-.82-1.05-.36-.24-.77-.36-1.24-.36s-.88.12-1.23.36c-.35.24-.63.59-.83,1.05s-.3,1.01-.3,1.66v.02c0,.65.1,1.21.29,1.67.19.46.47.81.82,1.05.36.24.77.36,1.25.36s.89-.12,1.24-.36Z"/>
    <path d="m68.13,33.56c-.57-.21-1.02-.51-1.37-.87-.34-.37-.56-.78-.65-1.23l-.02-.08h1.83l.03.07c.12.28.37.51.75.69.38.18.85.27,1.42.27.72,0,1.28-.18,1.67-.55.39-.36.58-.85.58-1.47v-1.23h-.04c-.17.32-.39.6-.66.84-.27.24-.59.42-.95.55-.36.13-.76.19-1.18.19-.74,0-1.4-.18-1.96-.55s-.99-.89-1.29-1.57c-.3-.68-.46-1.48-.46-2.4h0c0-.94.15-1.74.47-2.43.31-.68.75-1.2,1.31-1.57s1.22-.55,1.97-.55c.42,0,.81.07,1.16.21s.66.34.94.59c.27.25.49.55.67.88h.04v-1.51h1.84v8.66c0,.68-.17,1.27-.5,1.78-.33.51-.8.9-1.41,1.18-.61.28-1.34.42-2.17.42-.76,0-1.43-.11-1.99-.32Zm3.13-4.67c.35-.25.62-.6.81-1.05s.29-.98.29-1.59h0c0-.62-.1-1.15-.29-1.6-.19-.45-.47-.8-.82-1.04-.35-.25-.76-.37-1.22-.37s-.9.12-1.25.36-.63.59-.82,1.04c-.19.45-.29.98-.29,1.59h0c0,.63.1,1.17.29,1.62.19.45.46.8.82,1.04s.77.37,1.25.37.88-.12,1.22-.37Z"/>
    <path d="m76.08,18.53h1.84v12.21h-1.84v-12.21Z"/>
    <path d="m81.35,30.36c-.63-.38-1.11-.91-1.45-1.6-.34-.69-.5-1.51-.5-2.44h0c0-.93.17-1.74.51-2.44.34-.7.82-1.24,1.43-1.63.61-.39,1.34-.58,2.17-.58s1.55.18,2.15.55c.6.37,1.07.89,1.39,1.57.33.67.49,1.46.49,2.35v.62h-7.24v-1.29h6.35l-.91,1.21v-.71c0-.63-.09-1.15-.28-1.56s-.45-.72-.79-.93c-.34-.2-.72-.3-1.16-.3s-.82.11-1.17.32-.62.53-.81.94c-.2.41-.3.92-.3,1.53v.71c0,.58.1,1.07.29,1.48.19.41.47.72.83.94s.79.33,1.28.33c.36,0,.68-.06.96-.17.28-.11.51-.26.69-.44.18-.18.31-.39.39-.61l.03-.07h1.74l-.02.09c-.07.35-.21.69-.41,1.01-.2.32-.47.61-.79.87-.32.26-.71.46-1.15.61-.44.15-.93.22-1.47.22-.87,0-1.62-.19-2.25-.56Z"/>
    <path d="m92.67,18.53h1.9v12.21h-1.9v-12.21Zm.95,6.45h3.13c.82,0,1.45-.21,1.91-.64s.68-1.02.68-1.77v-.02c0-.77-.23-1.36-.68-1.79s-1.09-.63-1.91-.63h-3.13v-1.6h3.61c.8,0,1.51.17,2.11.5.61.34,1.08.8,1.43,1.4.34.6.52,1.3.52,2.1v.02c0,.8-.17,1.5-.52,2.1-.34.61-.82,1.08-1.43,1.41-.61.34-1.31.5-2.11.5h-3.61v-1.59Z"/>
    <path d="m102.78,18.53h1.84v12.21h-1.84v-12.21Z"/>
    <path d="m107.55,30.57c-.45-.23-.79-.54-1.04-.95-.25-.41-.37-.87-.37-1.41v-.02c0-.52.13-.97.39-1.34.26-.38.64-.67,1.13-.89s1.09-.35,1.79-.39l3.37-.2v1.29l-3.12.19c-.55.03-.97.16-1.27.39-.3.23-.44.53-.44.91v.02c0,.39.15.7.44.92.3.23.69.34,1.18.34.43,0,.81-.09,1.16-.26.34-.17.61-.42.81-.72.2-.31.3-.65.3-1.04v-2.65c0-.49-.15-.88-.46-1.15-.3-.28-.74-.42-1.31-.42-.52,0-.95.11-1.27.34s-.52.52-.6.87l-.02.08h-1.73v-.09c.05-.51.23-.97.52-1.38s.71-.73,1.24-.97,1.16-.36,1.89-.36,1.36.12,1.89.36.94.58,1.24,1.02c.29.44.44.96.44,1.55v6.14h-1.85v-1.4h-.03c-.18.32-.4.6-.68.83-.28.23-.59.41-.94.54s-.72.19-1.11.19c-.59,0-1.11-.11-1.56-.34Z"/>
    <path d="m115.99,33.69c-.17-.02-.32-.04-.43-.06v-1.43c.07.01.15.02.26.04s.22.02.34.02c.43,0,.78-.07,1.04-.22.26-.15.46-.43.61-.86l.15-.42-3.24-8.91h1.99l2.36,7.64-.32-.4h.45l-.32.4,2.37-7.64h1.94l-3.32,9.31c-.22.61-.48,1.11-.77,1.49-.3.38-.65.65-1.07.82-.41.17-.92.25-1.5.25-.18,0-.35,0-.52-.03Z"/>
  </g>
  <g>
    <rect x="9.61" y="15.33" width="2.79" height="8.69" rx="1.37" ry="1.37"/>
    <path class="cls-2" d="m25.73,24.95c0,.69-.57,1.25-1.26,1.25h-1.34v3.22c0,.75-.61,1.37-1.37,1.37h-.06c-.75,0-1.37-.61-1.37-1.37v-3.22h-1.88v3.22c0,.75-.61,1.37-1.37,1.37h-.06c-.76,0-1.37-.61-1.37-1.37v-3.22h-1.34c-.69,0-1.26-.56-1.26-1.25v-9.4h12.67v9.4Z"/>
    <rect x="26.38" y="15.33" width="2.79" height="8.69" rx="1.37" ry="1.37"/>
    <path d="m22.55,9.85l1.07-1.65c.07-.1.04-.24-.07-.31-.11-.07-.24-.04-.31.07l-1.11,1.7c-.83-.34-1.76-.53-2.73-.53s-1.91.19-2.74.53l-1.11-1.7c-.07-.11-.21-.14-.31-.07-.11.07-.13.21-.07.31l1.07,1.65c-1.92.94-3.22,2.72-3.22,4.76,0,.12,0,.25.02.37h12.72c0-.12.02-.25.02-.37,0-2.04-1.3-3.82-3.22-4.76Zm-6.1,2.95c-.34,0-.61-.27-.61-.61s.27-.61.61-.61.61.27.61.61-.27.61-.61.61Zm5.9,0c-.34,0-.61-.27-.61-.61s.27-.61.61-.61.61.27.61.61c0,.34-.27.61-.61.61Z"/>
  </g>
</svg>