<?xml version="1.0" encoding="UTF-8"?>
<svg id="Layer_1" data-name="Layer 1" xmlns="http://www.w3.org/2000/svg" viewBox="0 0 1080 1080">
  <defs>
    <style>
      .cls-1 {
        fill: #ffc709;
      }

      .cls-2 {
        fill: #212529;
      }
    </style>
  </defs>
  <g>
    <path class="cls-2" d="m144.64,431.05v-15.72h64.44v15.72h-23.2v71.91h-17.78v-71.91h-23.45Z"/>
    <path class="cls-2" d="m270.67,502.96v-36.34h-32.6v36.34h-17.78v-87.63h17.78v35.83h32.6v-35.83h17.79v87.63h-17.79Z"/>
    <path class="cls-2" d="m307.53,502.96v-87.63h56.7v15.46h-38.92v20.49h31.19v15.21h-31.19v21.01h38.92v15.46h-56.7Z"/>
    <path class="cls-2" d="m678.01,415.33h18.69l10.83,72.43h1.93l15.72-72.43h20.62l15.72,72.43h1.93l10.83-72.43h18.69l-16.75,87.63h-26.93l-13.79-66.63-13.79,66.63h-26.93l-16.75-87.63Z"/>
    <path class="cls-2" d="m795.15,502.96l19.72-87.63h33.76l19.72,87.63h-17.78l-3.48-15.85h-30.67l-3.48,15.85h-17.78Zm33.51-72.94l-8.89,41.62h23.97l-8.89-41.62h-6.19Z"/>
    <path class="cls-2" d="m908.56,502.96h-17.78v-35.44l-27.06-52.19h19.72l16.11,34.92,16.11-34.92h19.72l-26.8,52.19v35.44Z"/>
    <path class="cls-2" d="m144.64,602.88v-15.72h64.44v15.72h-23.2v71.91h-17.78v-71.91h-23.45Z"/>
    <path class="cls-2" d="m280.14,665.44c-5.46,7.26-14.84,10.89-28.16,10.89s-22.7-3.63-28.16-10.89c-5.46-7.26-8.18-18.62-8.18-34.09s2.73-26.95,8.18-34.47c5.45-7.52,14.84-11.28,28.16-11.28s22.7,3.76,28.16,11.28c5.45,7.52,8.18,19.01,8.18,34.47s-2.73,26.83-8.18,34.09Zm-42.4-11.34c2.53,4.51,7.28,6.77,14.24,6.77s11.7-2.26,14.24-6.77c2.53-4.51,3.8-12.07,3.8-22.68s-1.29-18.32-3.87-23.13c-2.58-4.81-7.3-7.22-14.18-7.22s-11.6,2.41-14.17,7.22c-2.58,4.81-3.87,12.52-3.87,23.13s1.27,18.17,3.8,22.68Z"/>
    <path class="cls-2" d="m387.43,673.37c-9.11,1.97-17.31,2.96-24.61,2.96s-13.14-.9-17.53-2.71c-4.38-1.8-7.82-4.68-10.31-8.63-2.49-3.95-4.21-8.59-5.15-13.92-.95-5.33-1.42-12.03-1.42-20.1,0-16.92,2.38-28.72,7.15-35.38,4.77-6.66,13.55-9.99,26.35-9.99,7.39,0,15.94,1.16,25.64,3.48l-.52,14.18c-8.5-1.29-15.57-1.93-21.2-1.93s-9.65.75-12.05,2.26c-2.4,1.5-4.19,4.36-5.35,8.57-1.16,4.21-1.74,11.39-1.74,21.52s1.18,17.16,3.54,21.07c2.36,3.91,7.09,5.86,14.18,5.86s14.63-.6,22.62-1.8l.39,14.56Z"/>
    <path class="cls-2" d="m461.72,665.44c-5.46,7.26-14.84,10.89-28.16,10.89s-22.7-3.63-28.16-10.89c-5.46-7.26-8.18-18.62-8.18-34.09s2.73-26.95,8.18-34.47c5.45-7.52,14.84-11.28,28.16-11.28s22.7,3.76,28.16,11.28c5.45,7.52,8.18,19.01,8.18,34.47s-2.73,26.83-8.18,34.09Zm-42.4-11.34c2.53,4.51,7.28,6.77,14.24,6.77s11.7-2.26,14.24-6.77c2.53-4.51,3.8-12.07,3.8-22.68s-1.29-18.32-3.87-23.13c-2.58-4.81-7.3-7.22-14.18-7.22s-11.6,2.41-14.17,7.22c-2.58,4.81-3.87,12.52-3.87,23.13s1.27,18.17,3.8,22.68Z"/>
    <path class="cls-2" d="m485.11,674.79v-87.63h30.03l21.14,72.17h1.29v-72.17h17.78v87.63h-29.25l-21.91-72.17h-1.29v72.17h-17.78Z"/>
    <path class="cls-2" d="m574.41,674.79v-87.63h30.03l21.14,72.17h1.29v-72.17h17.78v87.63h-29.25l-21.91-72.17h-1.29v72.17h-17.78Z"/>
    <path class="cls-2" d="m663.72,674.79v-87.63h56.7v15.46h-38.92v20.49h31.19v15.21h-31.19v21.01h38.92v15.46h-56.7Z"/>
    <path class="cls-2" d="m790.01,673.37c-9.11,1.97-17.31,2.96-24.61,2.96s-13.14-.9-17.53-2.71c-4.38-1.8-7.82-4.68-10.31-8.63-2.49-3.95-4.21-8.59-5.15-13.92-.95-5.33-1.42-12.03-1.42-20.1,0-16.92,2.38-28.72,7.15-35.38,4.77-6.66,13.55-9.99,26.35-9.99,7.39,0,15.94,1.16,25.64,3.48l-.52,14.18c-8.5-1.29-15.57-1.93-21.2-1.93s-9.65.75-12.05,2.26c-2.4,1.5-4.19,4.36-5.35,8.57-1.16,4.21-1.74,11.39-1.74,21.52s1.18,17.16,3.54,21.07c2.36,3.91,7.09,5.86,14.18,5.86s14.63-.6,22.62-1.8l.39,14.56Z"/>
    <path class="cls-2" d="m796.58,602.88v-15.72h64.44v15.72h-23.2v71.91h-17.78v-71.91h-23.45Z"/>
  </g>
  <g>
    <path class="cls-1" d="m425.67,502.62c-1.29-.52-2.79-1.22-4.51-2.13-1.72-.9-3.35-2.08-4.9-3.54-1.55-1.46-2.75-3.22-3.61-5.28-.86-2.49-1.44-4.94-1.74-7.35-.3-2.4-.41-5.2-.32-8.38,0-4.47.32-8.35.97-11.66.64-3.31,1.65-6.68,3.03-10.12.17-.26.49-1.01.97-2.26.47-1.24,1.03-2.6,1.67-4.06.64-1.46,1.14-2.58,1.48-3.35.69-1.46,1.74-3.41,3.16-5.86,1.42-2.45,2.94-4.83,4.57-7.15,2.49-3.69,4.6-6.72,6.31-9.09,1.72-2.36,3.37-4.36,4.96-5.99,1.59-1.63,3.35-3.22,5.28-4.77,1.93-1.55,4.36-3.31,7.28-5.28,1.89-1.37,4.32-2.23,7.28-2.58,2.96-.34,5.86.11,8.7,1.35,2.84,1.25,4.94,3.59,6.31,7.02.94,1.8,1.37,4.06,1.29,6.77-.09,2.71-.6,5.59-1.55,8.63-.95,3.05-2.15,5.91-3.61,8.57-1.46,2.66-3.09,4.81-4.9,6.44-1.12,1.03-2.6,1.2-4.45.52-1.85-.69-3.37-1.59-4.57-2.71-.77-1.46-1.18-2.32-1.22-2.58-.04-.26.11-.43.45-.52.52-.6,1.2-1.63,2.06-3.09.86-1.46,1.72-3.03,2.58-4.7.86-1.67,1.46-3.03,1.8-4.06.69-3.61,1.16-5.99,1.42-7.15.26-1.16,0-2.13-.77-2.9-.34-.34-.84-.47-1.48-.39-.64.09-1.7.52-3.16,1.29-1.98.86-4.32,2.6-7.02,5.22-2.71,2.62-5.39,5.73-8.05,9.34-3.44,4.55-6.31,8.59-8.64,12.11-2.32,3.52-4.08,7.13-5.28,10.83-.17.34-.64,1.46-1.42,3.35.08.34-.04,1.18-.39,2.51-.35,1.33-.73,2.47-1.16,3.41-.95,3.95-1.5,7.75-1.68,11.41-.17,3.65.07,6.83.71,9.54.64,2.71,1.61,4.7,2.9,5.99,1.11.77,2.53,1.03,4.25.77,1.72-.26,3.69-.86,5.93-1.8,2.23-.94,4.64-1.98,7.22-3.09,2.06-.86,3.95-1.8,5.67-2.84,1.72-1.03,3.01-1.93,3.87-2.71.69-.52,1.57-1.05,2.64-1.61,1.07-.56,2-.84,2.77-.84,1.2-.43,2.1-.08,2.71,1.03.6,1.12.9,2.53.9,4.25,0,1.2-.86,2.66-2.58,4.38-1.72,1.72-3.61,3.18-5.67,4.38-.69.69-1.61,1.31-2.77,1.87s-2.34,1.05-3.54,1.48c-1.8,1.37-4.04,2.71-6.7,4-2.66,1.29-5.35,2.28-8.05,2.96-2.71.69-5.18.82-7.41.39Z"/>
    <path class="cls-1" d="m481.47,498.63c-3.18-2.32-5.69-4.49-7.54-6.51-1.85-2.02-2.86-3.97-3.03-5.86-.17-1.55-.15-3.65.07-6.31.21-2.66.49-5.28.84-7.86.34-2.58.64-4.51.9-5.8.43-.43.6-1.37.52-2.84-.09-.43.21-1.57.9-3.41.69-1.85,1.33-4.23,1.93-7.15,1.72-5.15,3.37-9.47,4.96-12.95,1.59-3.48,3.16-6.46,4.7-8.96,1.55-2.49,3.09-4.77,4.64-6.83,3.52-3.61,6.85-6.49,9.99-8.63,3.13-2.15,6.03-3.82,8.7-5.03,1.72-1.03,3.31-1.85,4.77-2.45,1.46-.6,2.66-.69,3.61-.26,4.81,1.03,8.89,3.14,12.24,6.31,3.35,3.18,5.58,7.78,6.7,13.79.6,3.78.97,7.2,1.09,10.24.13,3.05-.11,6.06-.71,9.02-.6,2.96-1.7,6.21-3.29,9.73-1.59,3.52-3.8,7.65-6.64,12.37-3.52,6.96-7.37,12.78-11.53,17.46-4.17,4.68-8.33,8.23-12.5,10.63-4.17,2.4-8.12,3.72-11.86,3.93-3.74.21-6.89-.67-9.47-2.64Zm10.31-8.51c1.98-.26,3.59-.64,4.83-1.16s2.56-1.5,3.93-2.96c1.37-1.46,3.31-3.61,5.8-6.44,2.23-2.58,4.1-4.77,5.61-6.57,1.5-1.8,2.79-3.65,3.87-5.54,1.07-1.89,2.1-4.14,3.09-6.77.99-2.62,2.08-5.99,3.29-10.12.69-2.58,1.18-4.49,1.48-5.73.3-1.24.49-2.3.58-3.16.08-.86.11-2.04.06-3.54-.04-1.5-.06-3.8-.06-6.89-.09-1.46-.39-3.11-.9-4.96-.52-1.85-1.12-3.16-1.81-3.93-.86-.94-2.15-1.76-3.87-2.45-1.72-.69-3.52-.6-5.41.26-1.03.43-2.32,1.31-3.87,2.64-1.55,1.33-3.14,2.9-4.77,4.7-1.63,1.8-3.18,3.61-4.64,5.41-1.46,1.8-2.62,3.44-3.48,4.9-.86,1.46-1.29,2.49-1.29,3.09-.09.86-.3,1.5-.64,1.93-1.12,1.2-2.28,3.18-3.48,5.93-1.2,2.75-2.32,5.89-3.35,9.41-1.03,3.52-1.89,7.05-2.58,10.57-.69,3.52-1.12,6.7-1.29,9.54v3.48c0,.95.11,1.78.32,2.51.21.73.58,1.53,1.1,2.38.52.86,1.57,1.72,3.16,2.58,1.59.86,3.03,1.16,4.32.9Z"/>
    <path class="cls-1" d="m551.32,495.28c-4.47-1.63-7.95-4.87-10.44-9.73-2.49-4.85-3.18-10.55-2.06-17.08.17-2.49.58-4.72,1.22-6.7.64-1.98,1.14-3.95,1.48-5.93,0-.17.08-.45.26-.84.17-.39.21-.75.13-1.1.17-.52.56-1.48,1.16-2.9.6-1.42,1.2-2.79,1.8-4.12.6-1.33.99-2.08,1.16-2.26.43-.17.64-.56.64-1.16,0-.69.47-1.93,1.42-3.74.94-1.8,2.17-3.8,3.67-5.99,1.5-2.19,3.03-4.32,4.57-6.38,1.55-2.06,2.92-3.78,4.12-5.15,1.2-1.37,1.98-2.06,2.32-2.06.26,0,.47-.17.64-.52.17-.34.34-.56.52-.64.26-.34,1.05-.86,2.38-1.55,1.33-.69,2.92-1.44,4.77-2.26,1.85-.82,3.67-1.57,5.48-2.25,1.81-.69,3.35-1.16,4.64-1.42,3.78-1.37,7.17-1.37,10.18,0,3.01,1.38,5.41,3.95,7.22,7.73,1.81,3.78,2.75,8.59,2.84,14.43-.35,1.89-.54,3.67-.58,5.35-.04,1.67-.19,2.9-.45,3.67-.09,1.89-.39,4.04-.9,6.44-.52,2.41-1.03,4.49-1.55,6.25-.52,1.76-.9,2.69-1.16,2.77,0,.34-.09.67-.26.97-.17.3-.26.58-.26.84.08.43-.22,1.42-.9,2.96-.69,1.55-1.5,3.27-2.45,5.15-.95,1.89-1.8,3.52-2.58,4.9-.77,1.38-1.25,2.06-1.42,2.06-.35.09-.47.3-.39.64.08.17-.22.6-.9,1.29-.69.69-1.44,1.35-2.26,2-.82.64-1.44.97-1.87.97-.26.17-.26.39,0,.64.08.17-.58.84-2,2s-3.2,2.49-5.35,3.99c-2.15,1.5-4.3,2.88-6.44,4.12-2.15,1.25-3.87,2-5.15,2.26-.26.34-.52.54-.77.58-.26.04-.6.11-1.03.19-.6.6-1.66,1.1-3.16,1.48-1.5.39-3.03.6-4.57.64-1.55.04-2.79-.15-3.74-.58Zm13.02-13.53c1.72-.6,3.46-1.44,5.22-2.51,1.76-1.07,3.31-2.23,4.64-3.48,1.33-1.24,2.17-2.43,2.51-3.54.26-.94.54-1.65.84-2.13.3-.47.62-.84.97-1.1.69-.69,1.57-1.98,2.64-3.87,1.07-1.89,2.13-3.95,3.16-6.19,1.03-2.23,1.91-4.36,2.64-6.38.73-2.02,1.14-3.5,1.22-4.45,0-.17.13-.9.39-2.19.26-1.29.56-2.23.9-2.84.17-.34.24-.66.19-.97-.04-.3-.09-1.18-.13-2.64-.04-1.46-.02-4.08.07-7.86-.09-3.09-.37-5.39-.84-6.89-.47-1.5-1.05-2.43-1.74-2.77-.17-.17-.58-.34-1.22-.52-.65-.17-1.31-.28-2-.32-.69-.04-1.33.06-1.93.32-.43.09-1.01.28-1.74.58-.73.3-1.35.45-1.87.45-.69.34-1.16.75-1.42,1.22-.26.47-.39.84-.39,1.1,0,.69-.3,1.31-.9,1.87-.6.56-1.29.62-2.06.19-1.38.09-2.3.26-2.77.52-.47.26-.9.8-1.29,1.61-.39.82-1.14,2.17-2.26,4.06-2.41,1.89-4.12,3.74-5.15,5.54-1.03,1.8-1.63,3.18-1.8,4.12-1.81,3.27-3.14,5.78-4,7.54-.86,1.76-1.46,3.33-1.8,4.7-.35,1.38-.6,3.05-.77,5.03-.77,1.46-1.33,3.01-1.67,4.64-.34,1.63-.64,2.71-.9,3.22-.17.43-.26,1.22-.26,2.38s.06,2.45.19,3.87c.13,1.42.3,2.71.52,3.87.21,1.16.45,2,.71,2.51.52,1.98,1.76,3.09,3.74,3.35,1.98.26,4.77-.43,8.38-2.06Z"/>
    <path class="cls-1" d="m620.9,500.43c-2.06.26-3.63.39-4.7.39s-2.06-.13-2.96-.39-2.08-.6-3.54-1.03c-1.2-.77-2.56-1.85-4.06-3.22-1.5-1.38-2.47-2.23-2.9-2.58,0-.43-.22-.9-.64-1.42-.35,0-.63-.75-.84-2.25-.22-1.5-.3-3.29-.26-5.35.04-2.06.17-4,.39-5.8.21-1.8.49-3.01.84-3.61,0-.43.11-.97.32-1.61.21-.64.32-1.18.32-1.61,0-1.46.21-2.19.64-2.19.43-.09.64-.26.64-.52,0-.52.17-1.22.52-2.13.34-.9.6-1.74.77-2.51.43-.77.97-2.1,1.61-4,.64-1.89,1.27-3.65,1.87-5.28.43-1.89,1.03-3.78,1.8-5.67.77-1.89,1.33-3.39,1.67-4.51,1.2-2.06,1.81-3.61,1.81-4.64.17-.6.75-1.87,1.74-3.8s2.17-4.23,3.55-6.89c1.37-2.66,2.79-5.37,4.25-8.12,1.46-2.75,2.75-5.17,3.87-7.28,1.11-2.1,1.93-3.54,2.45-4.32,1.46-2.23,2.88-3.78,4.25-4.64,1.37-.86,2.45-1.29,3.22-1.29.43.17,1.05.64,1.87,1.42.81.77,1.59,1.61,2.32,2.51.73.9,1.14,1.61,1.22,2.13,0,.17-.3.9-.9,2.19-.6,1.29-1.37,2.69-2.32,4.19-.95,1.5-1.89,2.77-2.83,3.8-.26.34-.43.77-.52,1.29-1.12,1.98-2.06,3.67-2.84,5.09-.77,1.42-1.46,2.77-2.06,4.06-.6,1.29-.95,2.23-1.03,2.84-.52.6-1.22,1.83-2.12,3.67-.9,1.85-1.78,3.82-2.64,5.93-.86,2.11-1.63,3.93-2.32,5.48-.69,1.55-1.12,2.41-1.29,2.58,0,.43-.02.84-.06,1.22-.04.39-.24.8-.58,1.22-.26.6-.71,1.95-1.35,4.06-.64,2.11-1.53,4.28-2.64,6.51-.6,2.58-1.33,4.85-2.19,6.83-.86,1.98-1.5,3.18-1.93,3.61-.34.86-.52,1.35-.52,1.48s.17.15.52.06c.43-.43.65-.49.65-.19s-.22.8-.65,1.48c-.34.86-.54,1.78-.58,2.77-.04.99-.07,2.08-.07,3.29.09,1.72.54,3.01,1.35,3.87.82.86,2.13,1.29,3.93,1.29,2.92-.08,5.48-.3,7.67-.64,2.19-.34,4.06-.69,5.61-1.03,2.83-.94,5.3-1.22,7.41-.84,2.1.39,3.59,1.14,4.45,2.26.52.77.81,1.7.9,2.77.08,1.08.13,1.83.13,2.26-.26.34-1.31.88-3.16,1.61-1.85.73-4.06,1.48-6.64,2.26-2.58.77-5.09,1.44-7.54,2-2.45.56-4.4.88-5.86.97Z"/>
  </g>
</svg>