<?xml version="1.0" encoding="utf-8"?>
<!-- Generator: Adobe Illustrator 27.9.0, SVG Export Plug-In . SVG Version: 6.00 Build 0)  -->
<svg version="1.1" id="Camada_1" xmlns="http://www.w3.org/2000/svg" xmlns:xlink="http://www.w3.org/1999/xlink" x="0px" y="0px"
	 viewBox="0 0 1080 1080" style="enable-background:new 0 0 1080 1080;" xml:space="preserve">
<style type="text/css">
	.st0{fill:#FFFFFF;}
	.st1{fill:#4074B9;}
	.st2{fill:#212529;}
</style>
<g>
	<path class="st1" d="M572.4,514.16c0,41.49,0.04,82.98-0.09,124.47c-0.01,3.3,0.88,5,3.89,6.51
		c67.89,33.92,135.73,67.93,203.52,102.04c3.4,1.71,4.79,0.99,6.55-2.09c11.87-20.77,23.98-41.4,35.88-62.14
		c3.15-5.5,7-10.32,11.78-14.46c11.2-9.71,26.53-9.52,37.49,0.57c6.79,6.25,11.74,13.71,15.47,22.23
		c21.68,49.46,43.58,98.82,65.43,148.21c1.95,4.42,3.8,8.88,4.66,13.63c3,16.43-4.45,27.79-21.04,31.65
		c-13.97,3.24-28.34,3.71-42.53,5.35c-28.25,3.26-56.52,6.26-84.79,9.29c-17.78,1.91-35.56,3.91-53.39,5.37
		c-6.74,0.55-13.56-0.52-20.01-2.99c-16.86-6.46-22.89-21.67-15.85-40.01c3.41-8.89,8.93-16.65,13.54-24.89
		c5.32-9.5,10.78-18.93,16.5-28.19c2.2-3.56,1.9-4.97-2.03-6.92c-39.17-19.43-78.22-39.1-117.3-58.69
		c-28.74-14.41-57.5-28.77-86.18-43.28c-2.85-1.44-4.94-1.37-7.8,0.07c-67.64,34.02-135.32,67.97-203.1,101.73
		c-4.25,2.12-4.24,3.64-2.06,7.3c8.78,14.71,17.22,29.61,25.84,44.41c2.63,4.5,4.68,9.25,5.9,14.28c5.07,20.82-7.97,34.03-27.7,36.6
		c-14.75,1.92-29.24-1.33-43.78-2.76c-28.48-2.8-56.91-6.05-85.35-9.17c-19.02-2.09-38.05-4.06-57.03-6.5
		c-14.85-1.91-24.45-10.1-26.18-22.09c-1.15-8.01,1.38-15.53,4.6-22.78c17.8-40.08,35.6-80.15,53.4-120.23
		c4.85-10.91,9.6-21.87,14.53-32.74c4.3-9.46,10.39-17.56,19.51-22.87c10.15-5.91,21.94-4.76,30.99,2.69
		c5.01,4.12,9.09,8.97,12.34,14.67c11.93,20.93,24.18,41.68,36.05,62.65c2.03,3.58,3.66,3.65,7,1.97
		c67.47-33.94,134.99-67.8,202.55-101.56c3.27-1.64,4.6-3.38,4.59-7.2c-0.13-82.98-0.12-165.95-0.02-248.93
		c0-3.67-0.76-4.81-4.63-4.77c-20.05,0.2-40.11,0.1-60.16,0.08c-6.46,0-12.83-0.63-19.01-2.72c-15.45-5.25-22.91-18.89-19-34.75
		c1.95-7.92,5.53-15.04,10.32-21.59c32.93-44.99,65.78-90.04,98.91-134.88c6.94-9.39,15.34-17.37,28.64-15.29
		c9.1,1.42,15.55,7.32,20.68,14.24c33.62,45.37,67.02,90.91,100.43,136.44c4.13,5.63,7.26,11.79,9.29,18.55
		c6.07,20.16-4.24,36.24-25.17,39.09c-4.8,0.65-9.61,0.96-14.45,0.95c-18.62-0.04-37.25,0.13-55.87-0.12
		c-4.46-0.06-5.94,0.73-5.91,5.66C572.51,431.54,572.4,472.85,572.4,514.16z"/>
</g>
</svg>
