<?xml version="1.0" encoding="utf-8"?>
<!-- Generator: Adobe Illustrator 27.9.0, SVG Export Plug-In . SVG Version: 6.00 Build 0)  -->
<svg version="1.1" id="Camada_1" xmlns="http://www.w3.org/2000/svg" xmlns:xlink="http://www.w3.org/1999/xlink" x="0px" y="0px"
	 viewBox="0 0 1080 1080" style="enable-background:new 0 0 1080 1080;" xml:space="preserve">
<style type="text/css">
	.st0{fill:#212529;}
	.st1{fill:#4074B9;}
</style>
<g>
	<path class="st0" d="M201.88,540.06c0-102.73,0-205.47,0-308.2c0-19.82,2.95-39.23,10.18-57.67c13.1-33.42,38.47-52.54,72.91-60.42
		c14.31-3.27,28.85-4.37,43.5-4.36c59.03,0.02,118.06,0.07,177.1-0.11c4.55-0.01,5.52,1.15,5.52,5.56
		c-0.14,96.6-0.1,193.19-0.11,289.79c0,12.34,1.38,24.55,5.73,36.11c8.97,23.84,27.67,34.86,51.9,38.16
		c7.89,1.07,15.83,1.18,23.77,1.18c93.33-0.01,186.66,0.04,280-0.14c5-0.01,5.77,1.46,5.76,5.99
		c-0.12,120.97-0.09,241.94-0.08,362.91c0,20.2-3.01,39.92-10.58,58.67c-13.23,32.78-38.49,51.16-72.29,58.82
		c-14.5,3.29-29.23,4.34-44.05,4.34c-140.45,0-280.9,0.01-421.35,0c-20.09,0-39.94-1.71-59.11-8.35
		c-34.02-11.78-54.43-35.83-63.26-70.22c-3.78-14.72-5.6-29.69-5.59-44.94C201.92,744.81,201.88,642.44,201.88,540.06z"/>
	<path class="st0" d="M720.97,252.34c16.62,16.77,33.3,33.49,49.86,50.33c25.81,26.25,51.71,52.41,77.21,78.96
		c10.11,10.53,19.24,22,23.58,36.43c2.11,7.02,2.14,7.01-4.88,7.01c-91.33,0-182.65,0.01-273.98,0c-2.16,0-4.33-0.04-6.49-0.16
		c-13.38-0.76-19.58-7-20.18-20.34c-0.11-2.52-0.02-5.05-0.02-7.58c0-92.06,0-184.12,0-276.19c0-2.15,0-4.3,0-6.71
		c10.25,1.42,18.75,5.93,26.83,11.44c16.11,10.97,28.88,25.54,42.43,39.27c25.6,25.94,51.11,51.97,76.65,77.98
		c0.87,0.89,1.63,1.89,2.44,2.84c1.54,2.18-2.46,4.52,0,6.44C716.32,253.55,718.82,250.71,720.97,252.34z"/>
	<path class="st0" d="M720.97,252.34c-0.96,1.63-3.78-1.1-4.2,1.8c-1.38-0.4-3.9,0.9-3.94-1.19c-0.03-1.59-3.79-3.81,0.34-5.12
		c1.01-0.32,1.05-1.36,1.23-2.23C716.88,247.56,719.15,249.74,720.97,252.34z"/>
</g>
</svg>
