<?xml version="1.0" encoding="utf-8"?>
<!-- Generator: Adobe Illustrator 27.9.0, SVG Export Plug-In . SVG Version: 6.00 Build 0)  -->
<svg version="1.1" id="Camada_1" xmlns="http://www.w3.org/2000/svg" xmlns:xlink="http://www.w3.org/1999/xlink" x="0px" y="0px"
	 viewBox="0 0 1080 1080" style="enable-background:new 0 0 1080 1080;" xml:space="preserve">
<style type="text/css">
	.st0{fill:#FFFFFF;}
	.st1{fill:#4074B9;}
	.st2{fill:#212529;}
</style>
<g>
	<path class="st2" d="M645.43,85.5c-25.46-0.04-40.05,24.05-27.21,46.19c8.42,14.52,18.89,27.84,27.87,42.05
		c46.73,73.94,77.38,154.11,92.98,240.16c9.45,52.13,12.87,104.67,10.44,157.48c-6.23,135.17-47.5,258.49-126.69,368.7
		c-6.53,9.08-11.12,18.76-8.72,30.21c4.79,22.85,32.58,31.76,52.19,16.94c4.54-3.43,8.11-7.71,11.36-12.33
		c54.88-77.63,93.95-162.48,116.63-254.85c15.95-64.97,23.24-130.91,21.47-197.74c-4.07-153.49-50.07-293.2-138.91-418.63
		C668.09,91.33,657.85,85.52,645.43,85.5z"/>
	<path class="st2" d="M607.66,527.43c-1.08-106.44-34.66-214.49-104.92-310.63c-6.44-8.81-14.15-16.06-25.3-18.04
		c-13.9-2.47-25.42,2-33.53,13.68c-7.57,10.88-7.04,24.54,1.51,36.5c10.27,14.35,20.56,28.66,29.61,43.83
		c30.57,51.24,50.62,106.3,60.44,165.15c7.24,43.39,8.84,86.97,4.46,130.67c-8.81,87.79-38.89,167.53-91.87,238.36
		c-4.5,6.02-8.35,12.33-9.04,19.97c-2.22,24.62,22.88,42.04,45.54,31.61c7.48-3.44,13.1-9.06,17.93-15.62
		c42.55-57.76,72.29-121.51,89.36-191.15C602.48,628.37,607.57,584.28,607.66,527.43z"/>
	<path class="st2" d="M400.05,533.21c-0.97-70.75-24.2-139.76-72.74-199.86c-5.9-7.3-12.45-13.69-21.65-16.49
		c-13.44-4.09-27.52,1.16-35.85,13.12c-7.96,11.42-7.87,24.74,1.06,36.23c15.9,20.46,30.49,41.71,41.55,65.22
		c16.62,35.33,21.97,72.75,22.22,111.49c0.42,63.82-21.94,118.98-61.79,167.66c-13.62,16.64-9.29,34.14,2.12,44.49
		c13.15,11.93,32.02,11.56,45.5-1.69c11.92-11.72,21.29-25.56,30.08-39.7C383.52,660.59,400.09,601.98,400.05,533.21z"/>
</g>
</svg>
