<?xml version="1.0" encoding="utf-8"?>
<!-- Generator: Adobe Illustrator 27.9.0, SVG Export Plug-In . SVG Version: 6.00 Build 0)  -->
<svg version="1.1" id="Camada_1" xmlns="http://www.w3.org/2000/svg" xmlns:xlink="http://www.w3.org/1999/xlink" x="0px" y="0px"
	 viewBox="0 0 1080 1080" style="enable-background:new 0 0 1080 1080;" xml:space="preserve">
<style type="text/css">
	.st0{fill:#FFFFFF;}
	.st1{fill:#4074B9;}
	.st2{fill:#212529;}
</style>
<g>
	<path class="st2" d="M789.97,855.51c0.14,0.21,0.18,0.47,0.04,0.83c1.97-0.26,2.95-1.78,4.04-3.17
		C793.06,854.42,790.1,853.16,789.97,855.51z"/>
	<path class="st2" d="M826.45,853.17C826.45,853.17,826.45,853.17,826.45,853.17C826.45,853.17,826.45,853.17,826.45,853.17
		c25.13-22.87,47.48-48.21,66.19-76.56c64.91-98.36,88.38-205.55,64.3-321.3c-21.99-105.71-77.75-190.96-163.95-256
		c-61.93-46.72-131.77-74.09-208.85-82.64c-33.76-3.74-67.51-3-101.24,1.58c-63.62,8.64-122.49,30.4-175.41,66.39
		c-111.36,75.74-176.02,180.56-191.26,314.83c-5.87,51.74-0.9,102.82,13.5,152.88c29.55,102.79,89.37,183.73,178.01,243.03
		c58.93,39.42,124.08,62.31,194.92,68.63c35.31,3.15,70.45,1.94,105.38-3.78c42.65-6.98,83.2-20.49,121.78-40.03
		c33.77-17.11,64.87-38.02,92.59-63.87 M196.27,628.22c2.41-1.21,4.1,0.07,5.82,0.82c39.66,17.48,81.29,28.2,123.75,36
		c24.52,4.51,49.16,8.31,74.01,10.6c2.81,0.26,3.37,1.58,3.62,4.06c3.72,36.96,9.4,73.6,17.86,109.79
		c7.52,32.19,17.05,63.71,31.03,93.85C361.18,864,235.61,782.27,196.27,628.22z M427.78,265.2c-9.95,35.81-16.59,72.25-21.32,109.08
		c-7.79,60.7-10.79,121.67-10.06,182.84c0.19,16.11,0.9,32.22,1.51,48.33c0.11,2.85,0.24,4.7-3.66,4.3
		c-54.2-5.64-108.16-12.5-159.89-30.89c-12.37-4.4-24.14-9.95-34.82-17.73c-9.68-7.05-14.74-15.76-14.19-28.34
		c5.12-119.14,54.68-214.54,151.79-284.44c34.2-24.61,72.31-41.19,113.01-51.9c0.63-0.17,1.33-0.08,2.48-0.14
		C441.99,218.72,434.3,241.74,427.78,265.2z M869.17,673.3C820.99,786.32,737.2,857.48,617.65,886.27
		c-24.86,5.99-50.19,8.37-75.76,8.53c-7.01,0.04-12.62-2.47-17.56-7.28c-11.35-11.06-17.52-25.16-23.08-39.52
		c-11.85-30.62-17.93-62.7-23.42-94.91c-3.75-21.98-5.98-44.15-8.28-66.31c-0.39-3.81-0.56-6.02,4.71-5.76
		c52.94,2.64,105.89,2.26,158.77-1.23c65.56-4.32,130.45-13.06,193.68-31.72c19.45-5.74,38.43-12.77,57.5-21.47
		C880.28,642.94,875.52,658.41,869.17,673.3z M885.42,557.72c-10.73,9.25-23.27,15.31-36.42,20.18
		c-30.6,11.34-62.31,18.26-94.46,23.31c-65.42,10.26-131.33,13.76-207.71,14.2c-18.98-0.08-48.21,0.14-77.44-1.18
		c-3.21-0.14-4.44-0.7-4.56-4.3c-2.02-59.88-1.66-119.72,2.1-179.55c3.32-52.87,9.12-105.36,21.6-156.94
		c5.45-22.51,12.25-44.59,23.69-64.95c2.09-3.71,4.47-7.2,7.07-10.58c6.99-9.03,15.66-13.03,27.5-12.64
		c101.87,3.33,187.78,41.7,256.76,116.82c48.51,52.83,76.64,115.59,87.73,186.16c2.53,16.1,3.34,32.37,3.7,48.69
		C895.18,545.82,891.73,552.28,885.42,557.72z"/>
</g>
</svg>
