<?xml version="1.0" encoding="utf-8"?>
<!-- Generator: Adobe Illustrator 27.9.0, SVG Export Plug-In . SVG Version: 6.00 Build 0)  -->
<svg version="1.1" id="Camada_1" xmlns="http://www.w3.org/2000/svg" xmlns:xlink="http://www.w3.org/1999/xlink" x="0px" y="0px"
	 viewBox="0 0 1080 1080" style="enable-background:new 0 0 1080 1080;" xml:space="preserve">
<style type="text/css">
	.st0{fill:#FFFFFF;}
	.st1{fill:#4074B9;}
	.st2{fill:#212529;}
</style>
<g>
	<path class="st1" d="M924.68,878c0,12.11,0.03,24.23-0.01,36.34c-0.02,7.73-2.39,10.21-10.03,10.22
		c-24.4,0.05-48.81,0.04-73.21-0.01c-7.38-0.01-9.84-2.52-9.85-9.85c-0.03-24.4-0.03-48.8-0.01-73.2c0.01-7.38,2.34-9.93,9.73-9.96
		c24.57-0.1,49.15-0.11,73.73,0c7.28,0.03,9.63,2.7,9.64,10.11C924.69,853.77,924.68,865.89,924.68,878z"/>
	<path class="st1" d="M715.72,761.28c0-12.28-0.03-24.57,0.01-36.85c0.03-7.28,2.18-9.64,9.4-9.67c24.74-0.09,49.48-0.09,74.22,0.01
		c6.92,0.03,9.44,2.74,9.45,9.82c0.06,24.39,0.08,48.79,0.01,73.18c-0.02,7.35-2.6,9.99-9.88,10.01
		c-24.57,0.09-49.14,0.08-73.71-0.01c-7.09-0.03-9.44-2.52-9.48-9.66C715.68,785.84,715.72,773.56,715.72,761.28z"/>
	<path class="st1" d="M877.55,690.36c-12.27,0-24.55,0.09-36.82-0.04c-6.89-0.07-9.12-2.36-9.14-9.31
		c-0.07-24.71-0.06-49.42-0.01-74.13c0.01-6.95,2.17-9.23,9.24-9.27c24.54-0.13,49.09-0.17,73.63-0.04
		c8.22,0.04,10.22,2.36,10.23,10.41c0.01,23.86,0.01,47.72,0,71.57c0,8.76-2,10.79-10.82,10.83c-12.1,0.05-24.2,0.01-36.31,0.01
		C877.55,690.39,877.55,690.37,877.55,690.36z"/>
	<path class="st1" d="M597.5,878.36c0-12.28,0.01-24.56,0-36.84c0-7.38,2.28-9.94,9.71-9.97c24.56-0.09,49.13-0.09,73.7,0.01
		c7.05,0.03,9.56,2.72,9.56,9.66c0.02,24.56,0.02,49.12-0.03,73.68c-0.02,7.15-2.42,9.63-9.51,9.65
		c-24.57,0.07-49.13,0.08-73.7,0.02c-7.48-0.02-9.72-2.4-9.74-9.89C597.47,902.57,597.49,890.47,597.5,878.36z"/>
	<path class="st1" d="M644.03,690.36c-12.62,0-25.25,0.12-37.87-0.05c-6.33-0.08-8.58-2.37-8.61-8.78
		c-0.1-25.07-0.1-50.15,0.01-75.22c0.03-6.23,2.04-8.51,8.22-8.55c25.58-0.19,51.17-0.19,76.76-0.04c5.57,0.03,7.84,2.42,7.87,7.96
		c0.12,25.41,0.12,50.83-0.02,76.24c-0.03,6.12-2.41,8.34-8.48,8.4C669.28,690.45,656.66,690.36,644.03,690.36z"/>
	<path class="st1" d="M500.54,190.5c-5.73-26.08-20.77-43.91-46.64-51.86c-12.01-3.69-24.44-4.43-36.89-4.47
		c-32.76-0.1-65.52-0.03-98.28-0.03c-32.76,0.01-65.52-0.03-98.28,0.03c-8.86,0.02-17.72,0.5-26.46,2.06
		c-25.33,4.53-44.04,17.76-53.38,42.23c-4.76,12.46-6.56,25.66-6.56,39.07c0.03,66.02,0.04,132.04-0.03,198.05
		c-0.01,8.89,0.57,17.7,2.11,26.45c4.74,27.04,18.42,46.91,45.2,56.15c12.55,4.33,25.61,5.45,38.79,5.46
		c65.69,0.02,131.38,0.02,197.07,0.01c8.36,0,16.69-0.53,24.96-1.93c25.93-4.38,45.19-17.53,54.8-42.64
		c4.84-12.65,6.7-26.02,6.71-39.57c0.04-66.7,0-133.4,0.04-200.1C503.69,209.64,502.62,200.01,500.54,190.5z M441.32,418.36
		c-0.02,11.08-4.26,18.12-12.61,21.29c-3.04,1.15-6.21,1.7-9.49,1.7c-67.06-0.02-134.13,0.02-201.19-0.05
		c-14.33-0.01-21.62-7.77-21.68-23.16c-0.13-33.1-0.04-66.2-0.04-99.29c0-32.24,0-64.49,0.01-96.73c0-2.05,0.02-4.1,0.15-6.14
		c0.74-11.9,8.03-19.26,19.99-19.42c19.11-0.26,38.22-0.16,57.33-0.16c46.24-0.02,92.49-0.01,138.73,0c2.22,0,4.44-0.01,6.65,0.04
		c14.35,0.35,22.07,7.96,22.12,22.32c0.11,30.54,0.04,61.08,0.04,91.62C441.35,346.37,441.38,382.36,441.32,418.36z"/>
	<g>
		<path class="st1" d="M501.63,638.24c-4.82-28.12-19.26-48.36-47.34-57.19c-9.97-3.13-20.27-4.58-30.71-4.59
			c-69.28-0.05-138.56-0.02-207.84-0.05c-7.7,0-15.32,0.8-22.86,2.25c-24.9,4.79-43.13,18.16-52.28,42.2
			c-4.75,12.47-6.57,25.66-6.56,39.07c0.03,66.71,0.05,133.42-0.02,200.12c-0.01,9.94,1.02,19.72,3.13,29.4
			c5.5,25.28,19.87,42.84,44.71,51.21c12.76,4.3,26.05,5.08,39.35,5.14c32.42,0.16,64.84,0.05,97.27,0.05
			c32.59,0,65.19,0.09,97.78-0.07c8.51-0.04,17.04-0.36,25.48-1.75c25.04-4.14,44.33-16.27,54.39-40.3
			c5.57-13.31,7.52-27.55,7.52-41.97c0.04-65.85-0.01-131.71,0.05-197.56C503.7,655.48,503.1,646.83,501.63,638.24z M441.34,858.36
			c0,1.36,0.01,2.73-0.04,4.09c-0.48,12.67-7.65,20.14-20.36,21.03c-3.91,0.27-7.85,0.14-11.77,0.14
			c-61.77,0.01-123.54,0.01-185.32,0c-2.39,0-4.78,0.04-7.17-0.09c-12.58-0.67-19.88-7.76-20.19-20.4
			c-0.35-14.32-0.16-28.66-0.17-42.99c-0.02-19.79,0-39.58-0.01-59.37c0-32.42-0.01-64.83,0.01-97.25c0-3.4,0.09-6.77,0.99-10.14
			c2.35-8.72,7.92-13.75,16.91-14.49c4.58-0.38,9.2-0.35,13.81-0.35c61.94-0.03,123.89-0.03,185.83-0.04
			c21.05,0,27.48,6.39,27.48,27.4C441.35,730.06,441.35,794.21,441.34,858.36z"/>
		<path class="st1" d="M355.73,714.77c-24.73-0.1-49.47-0.1-74.2,0c-7.31,0.03-9.33,2.32-9.35,9.67
			c-0.03,12.11-0.01,24.22-0.01,36.33c-0.01,0-0.02,0-0.03,0c0,12.45-0.03,24.9,0.01,37.35c0.03,7.16,2.3,9.63,9.47,9.66
			c24.56,0.09,49.13,0.08,73.69,0c6.93-0.02,9.85-2.72,9.88-9.5c0.12-24.73,0.08-49.46-0.03-74.19
			C365.13,717.37,362.51,714.8,355.73,714.77z"/>
	</g>
	<path class="st1" d="M318.44,272.23c12.29,0,24.57-0.05,36.86,0.02c7.41,0.04,9.88,2.47,9.89,9.77c0.06,24.4,0.08,48.79,0.03,73.19
		c-0.01,7.45-2.68,9.93-10.96,9.97c-18.77,0.1-37.54,0.04-56.31,0.03c-5.63,0-11.27,0.21-16.89-0.1c-7.04-0.38-8.9-2.55-8.9-9.66
		c-0.02-18.26,0.02-36.51,0.02-54.77c0-6.65-0.09-13.31,0.01-19.96c0.09-6.06,2.35-8.39,8.36-8.44c12.63-0.1,25.25-0.03,37.88-0.03
		C318.44,272.25,318.44,272.24,318.44,272.23z"/>
	<g>
		<path class="st1" d="M943.01,191.37c-5.57-26.55-20.67-44.71-46.96-52.78c-11.84-3.64-24.12-4.38-36.41-4.42
			c-30.89-0.1-61.79-0.03-92.68-0.03c-34.65,0-69.3-0.03-103.94,0.03c-8.86,0.02-17.74,0.44-26.47,2.06
			c-29.34,5.47-48.95,21.66-56.36,51.29c-2.58,10.31-3.83,20.71-3.82,31.34c0.07,65.7,0.07,131.4,0,197.1
			c-0.01,9.07,0.56,18.04,2.2,26.96c4.9,26.64,18.64,46.08,45,55.18c12.55,4.34,25.61,5.52,38.78,5.53
			c65.88,0.04,131.77,0.03,197.65,0.02c8.2,0,16.36-0.56,24.45-1.93c26.15-4.43,45.47-17.79,54.98-43.15
			c4.82-12.84,6.53-26.42,6.53-40.15c0.02-65.87,0-131.74,0.03-197.61C945.99,210.89,945.05,201.08,943.01,191.37z M883.7,415.77
			c0,2.21,0.09,4.46-0.25,6.64c-2.02,13.09-8.79,18.9-22.23,18.92c-33.44,0.06-66.87,0.02-100.31,0.02
			c-32.41,0-64.83,0.02-97.24-0.01c-3.05,0-6.09,0.08-9.14-0.67c-9.36-2.3-14.37-7.63-15.56-17.17c-0.34-2.7-0.39-5.44-0.39-8.17
			c-0.03-64.64-0.03-129.28-0.02-193.93c0-2.38,0.1-4.78,0.38-7.15c1.24-10.48,7.98-16.96,18.52-17.65
			c4.25-0.28,8.53-0.2,12.79-0.21c61.93-0.01,123.85,0.28,185.78-0.17c20.39-0.15,27.89,7.29,27.79,27.66
			C883.51,287.85,883.71,351.81,883.7,415.77z"/>
		<path class="st1" d="M801.46,272.31c-12.45-0.11-24.91-0.03-37.37-0.03c0-0.01,0-0.03,0-0.04c-11.94,0-23.89-0.02-35.83,0.01
			c-9.17,0.02-10.71,1.57-10.71,10.7c-0.01,23.71,0.02,47.42-0.02,71.14c-0.02,9.1,1.8,11.07,11.05,11.12
			c13.65,0.07,27.3,0.02,40.95,0.02c10.07,0,20.14,0.13,30.2-0.04c7.97-0.14,10.77-2.65,10.79-9.63c0.06-24.73,0.03-49.47-0.08-74.2
			C810.4,274.78,807.96,272.36,801.46,272.31z"/>
	</g>
</g>
</svg>
